Land_normalized_Motion_pl05
version=1
nRows=18
nColumns=43
inDegrees=yes
endheader
time		pelvis_tilt		pelvis_list		pelvis_rotation		pelvis_tx		pelvis_ty		pelvis_tz		hip_flexion_r		hip_adduction_r		hip_rotation_r		knee_angle_r		ankle_angle_r		subtalar_angle_r		mtp_angle_r		hip_flexion_l		hip_adduction_l		hip_rotation_l		knee_angle_l		ankle_angle_l		subtalar_angle_l		mtp_angle_l		lumbar_extension		lumbar_bending		lumbar_rotation		neck_flexion		neck_lateral_bending		neck_rotation		arm_flex_r		arm_add_r		arm_rot_r		elbow_flex_r		pro_sup_r		wrist_flex_r		wrist_dev_r		hand_finger_flex_r		arm_flex_l		arm_add_l		arm_rot_l		elbow_flex_l		pro_sup_l		wrist_flex_l		wrist_dev_l		hand_finger_flex_l		
1.058333		2.302239		-0.576763		90.931171		-0.008664		0.650917		0.468231		69.958160		-9.610520		-5.101627		-96.247641		22.018768		5.085177		-1.511040		71.067177		-5.348823		3.428237		-97.065631		25.125372		-6.224206		-12.624736		-36.601354		6.533060		5.362279		0.513720		-0.251977		2.233031		-36.649830		-10.899657		-42.294264		46.350679		86.680607		-36.075071		-25.000000		32.907418		-35.773245		-11.953363		-32.446125		33.098015		90.755908		-35.489405		-5.890499		84.235329		
1.061389		2.343324		-0.149142		90.605495		-0.008283		0.642792		0.466461		70.781128		-9.469869		-4.803725		-98.127863		21.942916		5.391360		-1.106526		71.849446		-5.606571		3.557435		-99.063344		25.119600		-6.153485		-12.350939		-38.011674		6.340203		5.907571		1.982447		-0.175406		2.297567		-34.614622		-11.350899		-41.970090		47.349097		87.103945		-36.481114		-25.000000		33.355971		-33.352147		-12.305778		-31.435271		34.366383		91.274670		-35.123757		-6.143160		84.744311		
1.064444		2.391893		0.221288		90.360781		-0.007961		0.634759		0.464595		71.579013		-9.384166		-4.570745		-99.922832		22.018684		5.584588		-0.718719		72.628058		-5.829203		3.691691		-100.942696		25.264193		-6.110474		-12.072037		-39.316918		6.196391		6.244914		3.389201		-0.249858		2.285371		-32.469444		-11.886652		-41.592822		48.339495		87.547180		-36.788813		-25.000000		33.823896		-31.061263		-12.585676		-30.542697		35.783499		91.741466		-34.820601		-6.412627		85.261042		
1.067500		2.411687		0.858366		90.173646		-0.007684		0.627527		0.462671		72.004880		-9.321846		-4.308832		-101.615341		21.934919		5.694193		1.407005		73.029247		-6.048624		3.776911		-102.680111		25.324061		-5.926227		-10.442313		-40.900408		6.035658		6.520712		4.773675		-0.232055		2.252760		-30.165404		-12.363981		-41.452686		49.316882		88.853195		-38.083260		-25.000000		37.075540		-28.679220		-12.821832		-29.890299		37.273773		92.559663		-35.074991		-6.713036		87.265732		
1.070556		2.456366		1.050899		89.915806		-0.007232		0.619549		0.460773		72.876504		-9.241343		-4.134017		-103.219535		22.093679		5.906595		1.704421		73.867923		-6.358479		3.858964		-104.365395		25.539713		-5.851874		-10.187944		-41.929748		5.847686		6.797454		5.990524		-0.270615		2.337734		-28.089284		-12.964803		-40.883833		50.483562		89.346408		-38.319325		-25.000000		37.364957		-26.564857		-13.179435		-28.854933		39.000189		92.984921		-34.714195		-6.974753		87.550758		
1.073611		2.443530		1.382651		89.629887		-0.006668		0.612166		0.458858		73.538683		-9.108930		-3.878372		-104.734003		22.283564		6.136638		2.300196		74.456679		-6.726009		3.853378		-105.919057		25.847171		-5.624146		-9.651904		-43.103789		5.581442		7.068116		7.171229		-0.311661		2.323188		-25.969555		-13.546124		-40.356861		51.693073		90.330774		-38.918655		-25.000000		38.142633		-24.424251		-13.597865		-27.847196		40.808376		93.471186		-34.379929		-7.213400		88.151414		
1.076667		2.455295		1.529269		89.456722		-0.006309		0.604631		0.457041		74.342241		-9.097551		-3.715872		-106.173323		22.524155		6.365121		2.574385		75.235285		-6.968667		3.922283		-107.376076		26.052838		-5.471511		-9.387836		-44.060544		5.388738		7.241843		8.442263		-0.166878		2.426203		-23.890705		-14.175472		-39.745326		52.960311		91.222757		-39.233885		-25.000000		38.645234		-22.349913		-14.031077		-26.819122		42.747535		93.959337		-34.138831		-7.477041		88.608965		
1.079722		2.482976		1.654016		89.317752		-0.006090		0.597201		0.455187		75.092782		-9.126243		-3.592918		-107.528869		22.853298		6.489425		2.782219		75.993329		-7.190693		3.981106		-108.772527		26.383506		-5.446196		-9.177070		-44.912819		5.275783		7.288752		9.366151		-0.272312		2.402232		-21.852388		-14.952197		-38.897706		54.333493		92.044649		-39.348706		-25.000000		39.060294		-20.447915		-14.501831		-25.732053		44.843878		94.436702		-33.885960		-7.777557		89.001828		
1.082778		2.349708		1.900447		89.077730		-0.005750		0.590433		0.453506		75.689168		-9.131505		-3.280644		-108.775603		23.263147		6.904305		3.311573		76.472805		-7.479230		3.849129		-110.032669		26.778329		-5.106582		-8.564930		-45.949054		4.935631		7.291226		10.544821		-0.200419		2.497169		-19.652251		-15.660780		-38.133907		55.683109		93.999068		-40.413509		-25.000000		40.493992		-18.506545		-15.031230		-24.625000		47.076706		95.005095		-34.052604		-7.889301		90.000210		
1.085833		2.324659		1.938080		88.999537		-0.005677		0.583343		0.451782		76.422885		-9.267064		-3.171298		-109.991562		23.727337		7.070159		3.577457		77.221102		-7.607166		3.870366		-111.258942		27.104900		-5.100902		-8.238009		-46.670038		4.819228		7.264513		11.484511		-0.246930		2.500140		-17.674988		-16.601301		-36.973215		57.100825		94.959761		-40.724353		-25.000000		41.295809		-16.693043		-15.667351		-23.382784		49.415641		95.424975		-33.978600		-8.132598		90.000210		
1.088889		2.236493		2.006294		88.887361		-0.005558		0.576576		0.450150		77.090148		-9.398772		-2.990167		-111.131094		24.256542		7.382512		3.971461		77.867647		-7.756016		3.812459		-112.412774		27.444065		-4.977441		-7.722241		-47.431828		4.626422		7.171660		12.486922		-0.230549		2.564742		-15.606129		-17.547337		-35.768503		58.535969		96.272910		-41.493908		-25.000000		42.567095		-14.911508		-16.389483		-22.105853		51.837369		95.818125		-34.069371		-8.268200		90.000210		
1.091944		2.124400		2.063297		88.808268		-0.005505		0.570016		0.448528		77.715651		-9.580324		-2.806483		-112.223014		24.894667		7.727167		4.344023		78.483662		-7.864022		3.732246		-113.510352		27.793577		-4.882193		-7.085701		-48.165547		4.441489		6.979385		13.534192		-0.211956		2.650372		-13.452329		-18.611283		-34.289734		59.877623		97.390408		-42.518695		-25.000000		44.116200		-13.185924		-17.218124		-20.789941		54.309435		96.137819		-34.327825		-8.332716		90.000210		
1.095000		2.104559		2.005895		88.761594		-0.005521		0.563277		0.446912		78.400488		-9.746437		-2.742717		-113.262249		25.565300		7.840244		4.545616		79.280850		-7.961380		3.752327		-114.632792		28.062985		-4.874182		-6.772457		-48.756807		4.351010		6.938439		14.590451		-0.136341		2.618878		-11.518470		-19.702928		-32.945390		61.412954		98.078831		-42.796761		-25.000000		44.858387		-11.415775		-18.113788		-19.466337		56.768198		96.512605		-34.250045		-8.610185		90.000210		
1.098056		2.026371		2.036786		88.699946		-0.005429		0.556957		0.445325		78.954291		-9.915503		-2.620091		-114.260630		26.345453		8.131907		4.670864		79.909668		-8.082788		3.717676		-115.683331		28.421562		-4.746635		-6.452047		-49.422069		4.203152		6.788081		15.601609		-0.106601		2.671097		-9.461198		-20.884014		-31.368859		62.871440		98.954111		-43.330636		-25.000000		45.608939		-9.699851		-19.137485		-18.141085		59.294221		96.848079		-34.489804		-8.769300		90.000210		
1.101111		1.890548		2.174529		88.623378		-0.005479		0.550878		0.443652		79.396006		-10.111742		-2.416545		-115.264523		27.071455		8.433617		4.743652		80.386673		-8.187751		3.593105		-116.738329		28.782795		-4.661954		-5.987144		-50.113906		4.034215		6.537458		16.280171		-0.154699		2.779796		-7.325808		-22.196542		-29.559848		64.241548		99.881214		-44.225371		-25.000000		46.837531		-8.018596		-20.254014		-16.769013		61.812418		97.102721		-35.024919		-8.756758		90.000210		
1.104167		1.828403		2.235993		88.556504		-0.005495		0.544753		0.442007		79.852574		-10.259369		-2.299737		-116.218132		27.962660		8.665071		4.744498		80.986997		-8.328370		3.555421		-117.805783		29.113415		-4.496172		-5.746949		-50.775911		3.908039		6.414096		17.302657		-0.090068		2.844059		-5.279528		-23.493657		-27.926969		65.724066		100.579500		-44.690596		-25.000000		47.520047		-6.291381		-21.412712		-15.473330		64.355758		97.398828		-35.314652		-8.892122		90.000210		
1.107222		1.785114		2.242847		88.494803		-0.005494		0.538684		0.440399		80.347258		-10.406779		-2.240141		-117.136200		28.760080		8.737095		4.759589		81.630184		-8.453567		3.555551		-118.826034		29.432866		-4.456638		-5.587946		-51.314099		3.821478		6.334127		18.079121		-0.162353		2.824270		-3.192781		-24.839918		-26.319908		67.101857		101.183894		-44.797826		-25.000000		47.987720		-4.417892		-22.695167		-14.046369		66.645151		97.750675		-35.342108		-9.080990		90.000210		
1.110278		1.632052		2.459541		88.426253		-0.005450		0.533358		0.438894		80.576442		-10.556609		-2.033322		-118.002133		29.778257		9.062863		4.369154		81.938737		-8.598648		3.407127		-119.755396		29.855412		-4.191784		-5.196030		-52.126677		3.637691		5.957063		19.090527		-0.143789		3.120922		-0.607867		-26.258535		-24.091744		68.183790		101.831992		-46.337607		-25.000000		49.662701		-2.701799		-24.115032		-12.694657		69.176288		97.867340		-36.499282		-8.678274		90.000210		
